<?xml version="1.0" encoding="utf-8"?>
<!-- Generator: Adobe Illustrator 26.3.1, SVG Export Plug-In . SVG Version: 6.00 Build 0)  -->
<svg version="1.1" id="Capa_1" xmlns="http://www.w3.org/2000/svg" xmlns:xlink="http://www.w3.org/1999/xlink" x="0px" y="0px"
	 viewBox="0 0 640 512" style="enable-background:new 0 0 640 512;" xml:space="preserve">
<style type="text/css">
	.st0{fill:#FFFFFF;}
</style>
<g>
	<g>
		<path class="st0" d="M148.1,16.7c0-0.2,0-0.4,0-0.6c17.7,3.3,35.4,6.7,53.1,9.9c17.7,3.1,35.6,3.6,53.2-0.1
			c21-4.4,41.8-9.3,62.8-13.8c1.7-0.4,3.6-0.4,5.2,0.1c23,6.7,46.1,13,70,16.1c31.8,4.2,62.9,1.4,93.1-9.8c2-0.7,4-1.4,6.3-2.2
			c0,1.5,0,2.5,0,3.5c0,101.8,0,203.5,0,305.3c0,1.8-0.2,3.6-0.6,5.3c-2.1,10.3-7.7,18.5-15.4,25.5c-9.8,8.9-21.4,14.7-33.6,19.6
			c-21.4,8.6-43.7,13.6-65.9,19.4c-16,4.2-31.9,8.5-47.5,13.7c-6.3,2.1-11,2.6-17.1-0.8c-11.9-6.7-25.3-9.9-38.5-12.9
			c-19.1-4.3-38.4-8.2-57.5-12.7c-14.9-3.5-29.5-8.3-42.4-16.9c-16.2-10.7-25.1-25.3-25.1-45.4c0.2-99.7,0.1-199.4,0.1-299
			C148.4,19.5,148.2,18.1,148.1,16.7z M209.7,80.2c0,0.5-0.1,1.2-0.1,1.8c0,70.1,0,140.2,0,210.4c0,5.4,1.9,10.6,5.4,14.6
			c7.2,8.4,16.8,13.5,26.8,17.8c9.3,4,19.4,5.2,29.2,6.7c17.7,2.8,34.1,8.6,50.1,16.3c1,0.5,2.6,0.6,3.5,0
			c18.7-10.6,39.1-15.3,60-18.3c15.3-2.2,29-7.6,40.7-17.6c6-5.2,9.7-11.6,9.7-20.4c-0.3-69.4-0.1-138.7-0.1-208.1
			c0-1.2,0-2.4,0-3.8c-3.4,1.2-6.3,2.2-9.4,3.2c-11.2,3.6-22.9,5-34.5,5.7c-8.6,0.5-17.2,1.3-25.7,0.5c-13-1.1-25.3-5.4-36.8-11.5
			c-3.9-2.1-7.2-2.5-11-0.2c-2.2,1.4-4.7,2.6-7.1,3.4c-8.4,2.7-16.8,6-25.4,7.6c-16.3,3.1-32.6,0.3-48.7-2.1
			C227.4,85.1,218.7,82.4,209.7,80.2z M316,355.8c0,2.4,0.3,4.9-0.1,7.2c-0.3,2.3-1.3,4.5-2,6.7c-0.3,0-0.7-0.1-1-0.1
			c0.4-5-1.5-9.1-4.6-12.9c-3.9-4.8-13.6-6.5-18.4-3.5c-9,5.7-13.3,21.9-4.9,30.9c5.3,5.6,15,6.2,20.5,0.7c2.7-2.7,4.8-5.9,7.1-8.9
			c1.8,1.7,0.9,4.3,0.6,6.8c-0.3,2.5-0.8,4.9-1.3,7.5c0.5-0.1,0.7-0.1,0.9-0.2c0.3-0.2,0.6-0.4,0.9-0.7c3-2.7,4.1-6.2,4.3-10.1
			c0.1-1.5,0.4-2.8,2.2-2.6c6.3,0.4,12.1-1.7,17.7-4.1c1.2-0.5,2.7-0.4,4.1-0.6c-6.7,5.7-10.1,13.2-8.3,19
			c8.9-2.7,14.7-7.8,14.2-18.2c6.3,1.4,12.2,2.7,18.4,4.1c0.3-1.7,0.7-3.4,1.1-5.4c-5.6-1.4-10.9-2.7-16.3-4.2
			c-6-1.7-11.7-0.7-17.4,1.7c-2.9,1.2-6.1,2.1-9.2,2.7c-5.6,1.2-6.4,0.4-4.7-5.1C321.2,362,319.8,358.7,316,355.8z M268.5,55.8
			c1.1,7.2,1.9,8.5,5.9,12.7c4,4.2,13.8,5.3,18.3,2c8.6-6.3,11.5-23.1,2.3-31.3c-5.8-5.1-15.6-4.8-20.4,1.1c-2.5,3-4.3,6.5-6.5,9.8
			c-2.8-4.3,0-9.4-0.7-14.5c-3.7,3.3-5,7-4.8,11.4c0.1,1.6,0.1,3.2-2.1,3.3c-6,0.2-11.3,2.5-16.5,5.3c-1.4,0.7-3,0.9-4.6,1.3
			c5.2-5.8,8.4-11.7,6.8-20.6c-3.7,2.7-7.2,4.4-9.6,7.2c-3,3.4-4.4,7.8-2.8,13.1c-6.7-0.9-12.7-1.7-19.1-2.5
			c-0.1,0.9-0.1,1.8-0.3,2.7c-0.6,2.3,0.3,3.1,2.6,3.3c2.8,0.2,5.6,0.9,8.4,1.4c7.4,1.5,14.7,2,21.8-1.9c3.8-2,8-3.2,12.1-4.6
			c2-0.7,3.4-0.2,3,2.4c-0.2,1.3-0.2,2.6-0.5,3.9c-0.8,3.2,1.4,8.1,4.8,9.3C266.6,65.6,264.5,60.5,268.5,55.8z M157.3,105
			c2.5,3.4,4.2,6.9,6.9,9.3c3.4,3,7.9,4.3,13.1,3.1c-0.9,6.6-1.7,12.6-2.5,18.9c1.8,0.2,3.5,0.3,5.5,0.5c1-6.2,1.9-12.1,2.9-18
			c0.9-5.6-0.7-10.6-3.3-15.5c-1.4-2.7-2.6-5.7-3.4-8.6c-1.8-6.1-1.2-6.6,5-5.4c4.3,0.8,7.9-0.8,10-4.7c-2.6,0.2-5,0.6-7.4,0.4
			c-2.4-0.2-4.8-1-7.2-1.5c0-0.3,0-0.7,0-1c5.1-0.1,9.2-2.2,12.9-5.6c4.4-4,5.3-14.4,2.2-18.6c-6-8.1-20.3-10-27.7-5.4
			c-8.5,5.2-10.5,19-0.8,25.1c2.5,1.6,5.2,3,8,4.6c-4.6,3.3-9.7,0.3-15,1c3.1,3.6,6.7,5,11,4.7c1.8-0.1,3.6-0.1,3.6,2.4
			c0.2,5.8,2.4,11,5.1,16c0.8,1.5,1.1,3.3,1.6,5C171.3,105.4,164.4,102.8,157.3,105z M187.6,321.3c4.9-4.4,6.6-9.8,5.7-15.6
			c-0.9-5.3-3.7-9.7-9-11.7c-10.2-3.9-25.7,5.2-26.5,17.4c-0.5,7.8,6.2,15.6,14,15.5c3.8,0,7.5-0.8,11.5-1.3
			c-1.8,4.7-7.1,5.9-10.5,9.4c0.5,0.2,0.7,0.3,0.9,0.4c4.1,0.5,7.6-0.9,10.5-3.7c1.2-1.1,2.5-2.2,4.1-0.4c3.8,4.3,8.7,6.8,13.9,8.9
			c1.7,0.7,3.2,2,4.8,3c-7.9-0.5-14.6,1-19.8,7.2c8,5.4,15,4.7,23.2-2.4c3.4,5.3,6.7,10.5,10.1,15.9c1.5-1,3-2.1,4.6-3.2
			c-3.3-5.4-6.4-10.6-9.5-15.8c-2.8-4.6-6.9-7.3-11.7-9.4c-3.1-1.4-6.1-2.9-8.9-4.8c-5.3-3.5-5.3-4.1,0.4-7.3
			c3.8-2.1,5.2-5.4,4.9-10C196.2,316.3,193.7,321.2,187.6,321.3z M177.4,205.6c7.9-1.7,9.3-2.5,13.2-6.2c4.2-4.1,5.2-14,1.6-18.6
			c-6.5-8.2-22.7-11.1-31-2c-5.1,5.7-4.9,15.5,0.9,20.5c2.9,2.4,6.3,4.3,9.6,6.4c-4.3,3.1-9.5,0.2-14.6,0.9c0.5,0.6,0.9,1.2,1.3,1.6
			c2.9,2.5,6.2,3.4,10,3.1c1.6-0.1,3.1,0.1,3.2,2.2c0.3,6.1,2.6,11.5,5.5,16.8c0.7,1.3,0.8,3,1.2,4.5c-6.7-6.5-14.2-9.2-20.3-6.5
			c2.4,3.2,4.2,6.7,7,9.2c3.4,2.9,7.8,4.1,12.9,2.8c-0.9,6.6-1.7,12.7-2.5,18.9c1.9,0.2,3.7,0.3,5.5,0.5c0.9-5.2,1.5-10.1,2.5-14.8
			c1.5-7,0.2-13.4-3.3-19.6c-1.4-2.4-2.2-5.2-3-7.9c-1.7-6-1.1-6.5,4.9-5.3c4.3,0.8,7.5-0.5,10.2-4.5
			C187.1,207.2,182,209.3,177.4,205.6z M456.4,118.8c7.8,2.2,14.6-3.3,17-10.5c-6.6-1.8-12.2-1-16.1,5.5c-0.2-0.1-0.4-0.3-0.6-0.4
			c2.2-7.6,4.3-15.3,6.6-23.1c5.3,0.4,10.8,0.8,12.8-6.4c-2.3,0.7-4.5,1.5-6.8,2c-2.3,0.6-4.6,1.4-7-1c6.9-0.6,10.9-4.5,13.5-10.2
			c2.4-5.1,0.2-13.3-4.8-16c-7.7-4.3-15.7-4.2-23.7-0.8c-5.4,2.3-7.5,6.9-7.7,12.5c-0.1,5.3,2.1,9.6,6.9,12.1
			c2.8,1.5,5.9,2.3,8.8,3.3c-1.7,0.5-3.6,0.7-5.4,0.5c-1.9-0.3-3.8-1-6-1.6c2.4,6.9,7.6,6.6,12.9,5.7c0.3,4.9-1.2,9.2-3.1,13.3
			c-4.4,9.9-3.8,20.2-1.9,30.6c0.5,2.6,2.4,1.9,4,1.8c1.8-0.1,2.5-1.1,2-2.9c-0.3-1-0.4-2-0.5-3.1
			C457,126.4,456.8,122.8,456.4,118.8z M443,337c-3.4,3.9-7.6,5.8-12.1,7.5c-10,3.9-16.8,11.6-22.6,20.3c-0.4,0.6-0.2,2,0.3,2.6
			c2.1,2.7,3.3,2.6,5.4-0.2c0.5-0.7,0.9-1.4,1.5-2.1c2.3-2.7,4.6-5.4,7-8.2c4.2,7.4,14,7.7,19.3,4.5c-3-6.4-7-8.4-15.4-8.1
			c7-3.9,14-7.8,21.3-11.9c3.3,4.1,7,8.2,13.5,4.5c-2.2-1.2-4.2-2.1-6.1-3.3c-2-1.1-4-2.3-4.4-5.2c7.8,4.2,9,4.3,16.1,2.2
			c6.1-1.8,10.6-9.1,8.8-15.1c-2.4-8.1-8-13.7-15.9-16.9c-6-2.4-10.9-0.4-15.1,3.9c-3.9,4-4.7,8.9-2.8,14.1c0.9,2.5,2.4,4.7,3.7,7.2
			c-0.5-0.1-1.1-0.1-1.3-0.4c-2.2-2.7-4.3-5.4-6.3-8C435.4,329.1,436.4,331.9,443,337z M399.6,58.4c-7.7-2.2-15.4-4.3-23.1-6.5
			c-0.3-9.7-1.1-11.3-6.5-12.6c3.1,11.2,3.1,11.2,0.9,13.2c-0.7-6.3-4.3-10.2-9.8-12.9c-5.7-2.9-13.8,0-16.4,4.3
			c-4.4,7.6-4.3,15.7-1,23.7c2.3,5.6,7.1,7.8,12.9,7.9c5.3,0,9.5-2.4,11.9-7.1c1.4-2.7,2.1-5.7,3.2-8.9c1.5,4.1-0.1,7.7-1.2,11.5
			c5.6-1.7,6.6-3.9,5.8-12.7c4.6-0.5,8.8,0.9,12.8,2.8c9.8,4.6,20,3.9,30.3,2.4c2.8-0.4,3-1.8,2.7-4.1c-0.4-2.6-1.9-2.3-3.7-1.9
			c-0.9,0.2-1.8,0.4-2.8,0.5c-3.5,0.3-7,0.5-10.7,0.8c2.3-8.3-4.8-15.6-10.6-16.7C392.5,49.3,393.8,53.2,399.6,58.4z M464.4,214.5
			c7.1-0.7,11.1-5.1,13.7-11c2.2-5.1-0.3-13-5.2-15.6c-7.2-3.9-14.8-3.9-22.4-1.1c-5.5,2-8.3,6.3-8.7,12.1c-0.4,5.7,1.8,10.2,6.8,13
			c2.6,1.4,5.6,2.2,8.5,3.3c-0.4,0.2-0.9,0.6-1.2,0.6c-3.4-0.4-6.8-0.8-10.1-1.2c1.9,5.2,3.7,6,12.6,5.3c0.4,4.5-0.8,8.6-2.7,12.5
			c-4.7,9.9-4.1,20.1-2.4,30.5c0.4,2.5,1.8,2.9,4,2.6c2.5-0.3,2.4-1.9,2.1-3.7c-0.1-0.6-0.3-1.3-0.3-1.9c-0.3-3.8-0.7-7.6-1-11.6
			c8.2,2.1,15-4.1,17-11c-3.1,0-6.3-0.7-9,0.2c-2.7,0.8-5,3.2-7.7,5c2.1-7.4,4.3-15,6.4-22.7c9.7-0.3,11.5-1.2,12.5-6.4
			C473.1,214,469,217.2,464.4,214.5z M171.5,161.6c-0.1,0.4-0.2,0.8-0.4,1.2c2.8,0.8,4.4,2.4,4.5,5.4c0,0.7,0.9,1.8,1.4,1.9
			c1.4,0.2,3.4,0.5,4.3-0.3c2-1.7,3.5-4.1,5.7-6.7c-2.1,0.2-4,0.3-6,0.5c-0.4-1.3-0.8-2.9-1.3-5c-0.8,2-1.4,3.4-1.8,4.5
			C175.5,162.6,173.5,162.1,171.5,161.6z M170.6,38.6c-0.2,0.4-0.3,0.8-0.5,1.3c4.4,0.6,4.1,4.4,4.9,7.3c1.9,0,3.5,0,4.4,0
			c2.3-2.3,4.3-4.3,6.9-7c-2.5,0.2-4.4,0.3-6.4,0.4c-0.4-1.3-0.8-2.8-1.4-4.7c-0.8,1.9-1.4,3.3-1.9,4.3
			C174.4,39.5,172.5,39.1,170.6,38.6z M312.4,49.7c-0.4-0.2-0.9-0.4-1.3-0.6c-0.6,3.3-2.7,4.5-5.7,4.6c-0.6,0-1.5,0.9-1.6,1.5
			c-0.2,1.4-0.4,3.3,0.3,4.2c1.7,2,4.1,3.5,6.6,5.6c-0.2-2.1-0.4-4-0.5-6c1.3-0.4,2.8-0.8,4.9-1.3c-2-0.8-3.4-1.5-4.4-1.9
			C311.3,53.7,311.9,51.7,312.4,49.7z M163.2,287.5c-1-0.7-2.2-1.6-4-3c0.7,2.3,1.1,3.7,1.6,5.3c-2.5,0.3-4.9,0.2-5.6,2.9
			c1.7,0,3.4-0.4,4.7,0.1c1.4,0.5,2.5,1.9,4,3.1c1.3-1.4,3.3-2.5,3.6-4c0.6-2.5,0.2-5.2,0.2-8.5C166.1,284.7,164.8,286,163.2,287.5z
			 M271.7,357.4c0,1.9,0,3.8,0,5.8c-1.5,0.3-3,0.6-5.1,1c1.9,1,3.2,1.7,4.6,2.4c-1.2,2-3.4,3.6-1.5,6.8c0.9-3.5,3.1-4.4,6.1-4.4
			c0.6,0,1.7-0.9,1.8-1.5c0.2-1.4,0.5-3.2-0.2-4.2C275.9,361.2,273.9,359.6,271.7,357.4z M331.7,60.8c0,1.9,0,3.6,0,4.9
			c1.7-1.6,3.5-3,4.8-4.8c0.7-1,1.2-3.2,0.6-3.9c-1.6-2-3.9-3.4-5.9-5.1c0,1.7,0,3.4,0,5.2c-1.4,0.6-2.8,1.2-4.8,2.1
			C328.5,59.8,330,60.3,331.7,60.8z M451.4,175.3c1.7,1.7,3.2,3.7,5.1,5.2c0.9,0.7,3.1,0.9,3.9,0.3c1.9-1.6,3.3-3.7,5-5.7
			c-1.6,0-3.4,0-5.2,0c-0.7-1.5-1.3-2.9-2.2-4.9c-0.7,2.2-1.1,3.8-1.5,5.2C454.4,175.3,452.7,175.3,451.4,175.3z M456,40.9
			c-0.7,2.1-1.3,3.7-1.7,4.9c-2,0.1-3.7,0.2-5,0.2c1.7,1.7,3.1,3.6,4.9,4.9c1,0.7,3.3,1.1,4,0.5c1.9-1.5,3.3-3.7,5-5.7
			c-1.6,0-3.4,0-5.3,0C457.5,44.4,456.9,42.9,456,40.9z M479.3,309.8c-1.2-1.1-2.5-2.3-3.7-3.5c0.6-1.5,1.2-3,2.1-5
			c-2.1,1.1-3.5,1.9-4.8,2.5c-1.4-1.3-2.7-2.5-3.8-3.6c0,2.6-0.3,4.9,0.1,7.1c0.2,1.2,1.4,3.2,2.3,3.2
			C474,310.8,476.5,310.2,479.3,309.8z"/>
		<path class="st0" d="M392.8,277.7c2.1,0.4,4.2,0.9,6.4,1.4c-2.4,3-5.9,1.4-8.8,1.9c1.3,10.1-5,15.3-15.5,13.5
			c-2.9,8.1-3.2,16.5-3.3,25.2c-3.8,0-7.5,0-11.7,0c0.6-6.1,1.2-12,1.9-18.4c-5.9,1.4-10.3-0.9-13.9-5.1c-3.3-3.8-4.5-8.1-4-13.4
			c4.8-0.4,8.9,1.4,12.8,4c4.1,2.8,4.9,7.4,6.4,12.4c0.8-1.5,1.2-2.3,1.7-3.2c0.9-1.6,1.8-3.3,2.8-4.9c0.9-1.4,2.7-2.8,2.5-4
			c-0.3-2.7-0.9-6-2.6-7.8c-4.7-5-10.1-9.4-17-11.3c-0.4-0.1-0.9-0.1-1.4-0.2c0.4,1.5,0.7,2.8,1.1,4.4c-5.8-3-11.2-5.8-16.7-8.6
			c-0.2,0.2-0.5,0.4-0.7,0.6c1.5,4.8,3.2,9.6,4.3,14.5c1.1,4.9,1.6,10,2.4,15.6c-3.8-2.4-7.1-4.5-10.3-6.5c-0.2,0.2-0.4,0.3-0.6,0.5
			c2.9,16.6,0.7,32.2-9,46.2c-8.4-7.5-12.9-27.7-10-45.7c-2.7-0.3-2.7-0.3-8.8,4.8c-1.8-3.7-1.3-7.5-0.3-11.1
			c1.2-4.8,3.1-9.5,4.6-14.3c0.3-1,0.6-2.1,0.9-3.1c-0.2-0.2-0.4-0.4-0.6-0.6c-3.4,2.1-6.8,4.2-10.2,6.4c0.3-2,0.6-4,1-6.4
			c-1.5,0.3-2.8,0.2-3.7,0.9c-7.3,5-14.6,10.1-21.9,15.1c-0.5,0.3-1.2,1.2-1.1,1.5c1.4,4.2-1.3,9,2,12.8
			c5.1-10.8,8.7-12.2,18.2-12.3c0.9,8.1-3,18.2-16.4,18.3c1,4.7,2,9.5,2.8,14.3c0.2,1.2,0,2.4,0,4c-3.2,0-6.3,0-9.9,0
			c0-3.9,0.3-7.8-0.1-11.6c-0.4-3.8-1.7-7.5-2.6-11.3c-7.3,1.8-11.2-2.3-14.7-6.8c-2.6-3.4-3.1-7.1-1.2-10.8
			c-2.4,0.2-4.9,0.4-7.4,0.6c-0.1-0.3-0.1-0.6-0.2-0.8c2.2-1.1,4.4-2.1,6.6-3.2c-0.1-0.2-0.1-0.4-0.2-0.7c-0.7,0.2-1.4,0.5-2.1,0.5
			c-3.9,0.3-7.9,1.3-11.7,0.6c-7.9-1.4-11.5-8.3-9-15.9c3.2-10,16.4-17.2,26.5-14.5c7.9,2.1,11.5,8.7,8.6,16.4
			c-0.7,1.9-1.8,3.7-3,5.4c-1.1,1.6-2.7,2.9-4.2,4.5c3.6-0.1,5.6-2.5,7.8-4.7c0.6,2.7,0.6,2.7-5.3,8.2c3.2,0.2,6.4,0.6,9.5,0.3
			c1.4-0.1,2.8-1.4,3.9-2.5c5.3-4.7,10.4-9.6,14.3-15.9c-1.6,0.2-3,0.4-4.7,0.7c1.7-5.3,4.6-9.5,8.9-12.5
			c6.4-4.6,13.1-8.9,19.6-13.4c1.7-1.2,3.1-2.6,4.6-3.9c-2.3-4.4-3-4.2-6.8-1.9c-8.4,5.1-17.3,9-27.6,5.9c-1.9-0.6-3.7-1.8-6.3-3.1
			c9.9-2.5,17-7,19.6-16.3c-5.3,1.5-10.4,3.1-15.7,4.3c-7.2,1.7-14.4,2.1-21.2-1.8c-2.5-1.5-4.8-3.4-6.9-5.4
			c11.7-0.2,21.3-4.3,28.9-13.3c-17.2,3.9-31.9-0.1-44.4-13.3c11.6-0.2,22.4-2.5,32.7-8.7c-3.8-0.9-7.1-1.8-10.4-2.3
			c-14.9-2.6-25.2-10.9-31.3-24.6c-0.2-0.3-0.2-0.7-0.3-1.1c-0.2-0.8-0.3-1.6-0.5-2.7c11.7,5.2,23.7,5.5,35.9,4.7
			c0.1-0.3,0.2-0.6,0.2-0.9c-3.3-1.6-6.5-3.5-10-4.7c-7.1-2.4-12.8-6.9-18-11.9c-3.7-3.6-7.1-7.6-9.2-12.7
			c-2.6-6.4-2.5-12.5-1.5-19.3c2.9,2.4,5.5,4.7,8.2,6.7c2.8,2,5.7,3.9,8.8,5.5c4.3,2.2,8.6,4.3,13.1,6c6,2.2,12.2,3.8,18.2,6
			c4.7,1.7,9.5,3.4,13.5,6.2c4.8,3.4,7.8,8.6,8.7,14.7c0.3,2.1,0.6,4.1,1.1,6.1c1.7,6.8,8.7,9.2,14.7,5.3c3-2,4-4.5,4.1-7.8
			c0.1-5.8,0.3-11.5,0.5-17.3c0.1-3.3-1.4-4.8-4.7-5c-2.5-0.1-5.1,0-7.7,0c0-3.9-0.4-7.6,0.2-11.1c0.3-1.8,2.1-3.8,4.7-3.7
			c7.7,0.1,15.5,0.1,23.2,0.3c0.6,0,1.5,0,1.9,0.4c3.7,4.3,8.1,8,7.3,14.8c-0.8,7-0.6,14.1-0.7,21.2c0,7.7,4.6,10.2,11.2,9.3
			c4.7-0.6,8-4.3,7.8-9.2c-0.3-6.7,1.4-12.7,6.3-17.3c2.7-2.6,6.2-4.5,9.7-5.9c7.8-3.2,15.9-6,23.8-8.9c9.3-3.4,17.5-8.4,24.8-15.1
			c0.4-0.4,0.9-0.7,1.3-1.1c0.1,0,0.2,0,0.4,0c1.3,5.4-0.1,10.6-1.5,15.6c-2.9,10.9-9.8,18.9-19.5,24.6c-3.9,2.3-7.5,5-11.3,7.5
			c4.3,2.2,15.1,1.2,34.4-3.3c-1.1,9.2-4,17.2-12.5,22.1c-5.4,3.1-11,5.3-17.2,6c-2.5,0.3-4.9,1.2-7.4,2.3c8.1,6.4,17.8,8.4,28.2,10
			c-5.8,5.6-11.8,10.2-19.7,11c-7.4,0.8-14.9,1-22.4,1.5c6.5,10.2,16.9,12.3,28.2,12.4c-6,8.4-20.6,13.3-42.7,4.1
			c1.3,4.5,3.9,7.9,7.4,10.2c3.5,2.3,7.6,3.6,11.5,5.3c-4.4,2.8-9.1,4.7-14.7,4.3c-8-0.6-15.4-3-22.3-6.7c-1.7-0.9-3.7-1.4-4.8,0.2
			c-1.3,1.8-0.5,4,1.2,5.2c1.9,1.3,4,2.4,6.2,3.4c7.6,3.4,14.4,8,20.1,14c2,2.1,3.1,5,4.9,7.9c-2.8,0.2-4.8,0.3-7.7,0.4
			c2.2,3.4,3.9,6.3,6.1,8.9c1.9,2.3,4.6,4,6.5,6.3c2.6,3.2,5.5,3.9,9.4,1.9c-1.8-1.7-5.4-2.7-4.1-6.1c3.2,1.5,6.4,3.1,9.6,4.6
			c0.1-0.2,0.1-0.4,0.2-0.6c-1.7-2.4-3.6-4.6-4.9-7.1c-5.2-10.3,0.9-20.1,12.4-20.2c9.9-0.1,20,8.1,21.3,17.4
			c1.1,7.7-3.4,13.9-11.2,14.9c-2.9,0.4-6,0.1-9,0.1C392.8,277.6,392.8,277.6,392.8,277.7z M405,254.7c0-3.8-0.7-4.4-4.5-4
			c-8.3,0.8-15,10.1-13.3,18.5c0.7,3.6,1.9,4.2,5.3,3.1C400.6,269.5,405.1,263.2,405,254.7z M249.4,271.1c2-9.8-1.8-18.6-9.8-22
			c-3.9-1.7-7.1,0.3-7.2,4C232.5,263,238.9,271.4,249.4,271.1z M313.2,122.3c2.6,0,4.6-1.9,4.5-4.4c0-2.4-2-4.2-4.4-4.2
			c-2.5,0-4.6,2-4.6,4.4C308.8,120.3,310.9,122.3,313.2,122.3z"/>
		<path class="st0" d="M302.4,94.4c2.5,1,5,2.1,7.6,2.8c4.3,1.2,5.6,0.3,7-3.9c0.5-1.7,1.1-3.3,2.2-5c0.8,2.4,1.6,4.8,2.3,7.2
			c0.6,2,2,2.4,3.7,1.9c1.8-0.4,3.7-0.8,5.5-1.5c1.7-0.6,3.2-1.4,5.4-2.5c-2.3,4.1-4.2,7.7-6.3,11.2c-0.3,0.5-1.4,0.9-2.1,0.9
			c-5.6,0.1-11.1,0.1-16.7,0c-0.9,0-2.1-0.6-2.6-1.2c-2.3-3.1-4.4-6.3-6.5-9.5C302,94.7,302.2,94.6,302.4,94.4z"/>
		<path class="st0" d="M407.5,250.3c-1.6-1.2-3.1-2.2-4.4-3.4c-0.5-0.5-0.9-1.4-0.8-2.1c0.5-5.2,0.4-5.5-3.9-7.8
			c3.4-1.9,5.8-0.7,8.6,4.5c1.6-1.2,3.2-2.3,5.3-3.8c-0.8,2.5-1.5,4.4-2.2,6.6c4,0.3,7.3,1.2,8,6.6
			C414.4,247.2,411,246.3,407.5,250.3z"/>
		<path class="st0" d="M222.1,247.5c1.3-3.1,1.3-3.1,5.3-3.7c-0.1-1.6-0.1-3.3-0.2-5.5c1.6,1.3,2.7,2.3,3.8,3.3
			c1.6-1.3,3.1-2.6,4.7-4c0.3,0.2,0.6,0.5,0.9,0.7c-2.5,1.6-2.5,3.8-2,6.2c0.1,0.7-0.7,1.7-1.4,2.3c-0.7,0.7-1.7,1.2-2.9,1.9
			C228.3,246.5,226,244.2,222.1,247.5z"/>
		<path class="st0" d="M294.6,360.7c5.9-0.6,10.5,2.2,14.8,5.8c2,1.7,1.9,6.1,0.1,8.3c-1.9,2.3-4.3,3.6-7.2,3.9
			c-5.2,0.5-10.1,0.2-14.4-3.3c-2.8-2.3-4.7-6.1-3.9-9.1c0.7-2.7,4.5-5.3,8.1-5.6C292.9,360.7,293.7,360.7,294.6,360.7z"/>
		<path class="st0" d="M283.6,45.6c4.6-0.1,8.7,1.1,11.9,4.6c4.7,5.1,2.2,11.4-4.9,13c-6,1.3-11.5,0.3-16.7-3.2
			c-3.9-2.7-4.4-7.8-0.9-11C276.1,46.3,279.7,45.7,283.6,45.6z"/>
		<path class="st0" d="M165.9,66.1c1.1-2.7,1.9-5.6,3.2-8.2c1.7-3.4,4.8-5,8.6-4.9c2.7,0.1,5.5,3.5,6.4,7.1c1.6,6.7,0,12.7-4,18.1
			c-2.1,2.8-7.4,2.6-10-0.3c-2.7-2.9-3.6-6-3.5-11.5C166.3,66.3,166.1,66.2,165.9,66.1z"/>
		<path class="st0" d="M180.2,322.9c-2.2-1-4.6-1.7-6.4-3.1c-4.1-3-7.2-6.8-7.8-12.2c-0.4-3.7,0.9-8.1,3.7-9.4
			c3.4-1.6,6.6-0.5,9.4,1.6c5.4,4,7.9,9.6,8.4,16.3C187.7,319.2,184.1,322.4,180.2,322.9z"/>
		<path class="st0" d="M166.8,189.9c1.1-3.1,2-6.3,3.5-9.2c1.7-3.3,4.8-5,8.4-4.5c3.5,0.5,5.3,3.3,6.2,6.6c1.9,6.8,0.2,13-3.9,18.6
			c-2.1,2.8-7.4,2.4-10-0.4c-2.8-3.1-3.4-6.8-3.4-10.7C167.3,190.1,167.1,190,166.8,189.9z"/>
		<path class="st0" d="M459,56.8c4.7-0.4,7,2.8,8.5,6.3c2.3,5.6,1.9,11.4-1.2,16.6c-2,3.4-5.8,4.2-9.5,3.7c-3.1-0.4-5.8-2.4-6.7-5.4
			c-2.1-6.8-1.9-13.5,3.5-19c1.3-1.3,3.3-2,5-3C458.8,56.4,458.9,56.6,459,56.8z"/>
		<path class="st0" d="M470.7,321.4c-0.7,5.7-4.4,10.2-10.2,13.2c-4.4,2.4-8.2,1.7-11.7-1.8c-2.1-2.1-3.4-6.7-2-9.4
			c3.4-6.1,7.9-10.8,15.6-11.1C467.4,312.3,470.8,315.4,470.7,321.4z"/>
		<path class="st0" d="M355.8,66.9c-3.7,0-6.7-1.6-9.7-3.6c-3.4-2.3-4.4-5.4-3.5-9.1c0.9-3.3,3.7-5.3,6.7-6.3
			c4.7-1.6,9.4-1.5,14.1,0.5c4,1.7,6.1,5.2,5.8,10.2c-0.2,3.3-3.8,6.8-7.5,7.4C359.7,66.4,357.8,66.6,355.8,66.9z"/>
		<path class="st0" d="M460.1,212.8c-4.2,0.2-8-2.9-8.9-6.9c-1.5-6.7-0.8-12.7,4.2-17.8c2.5-2.5,7.1-2.8,9.8-0.5
			c4.9,4.1,6.4,11.5,4,18.4C467.7,210.5,464.8,212.9,460.1,212.8z"/>
	</g>
	<g>
		<g>
			<path class="st0" d="M161.3,429.7c0.5-0.3,1.2-0.6,2.2-0.8c1-0.3,2-0.4,2.9-0.4c1.4,0,2.7,0.2,3.7,0.6c1.1,0.4,1.8,1.1,2.1,1.9
				c0.5,1.5,1.1,3.2,1.7,5.1c0.6,1.9,1.2,4,1.8,6c0.6,2.1,1.2,4.1,1.7,6.1c0.6,2,1.1,3.8,1.5,5.4c-0.3,0.4-0.8,0.7-1.5,1
				c-0.7,0.2-1.5,0.4-2.4,0.4c-0.7,0-1.2-0.1-1.7-0.2c-0.5-0.1-0.8-0.3-1.1-0.5c-0.3-0.2-0.5-0.5-0.7-0.9c-0.2-0.4-0.3-0.8-0.5-1.3
				l-0.8-2.9h-7.7c-0.2,0.8-0.5,1.7-0.7,2.6c-0.2,0.9-0.5,1.8-0.7,2.6c-0.4,0.1-0.8,0.3-1.2,0.4c-0.4,0.1-1,0.1-1.6,0.1
				c-1.4,0-2.5-0.2-3.2-0.7c-0.7-0.5-1-1.2-1-2.1c0-0.4,0.1-0.8,0.2-1.2c0.1-0.4,0.2-0.9,0.4-1.4c0.2-0.8,0.5-1.7,0.8-2.8
				c0.4-1.1,0.7-2.4,1.2-3.7s0.9-2.7,1.4-4c0.5-1.4,0.9-2.7,1.4-3.9s0.8-2.3,1.2-3.3C160.9,430.9,161.1,430.2,161.3,429.7z
				 M166.4,435.1c-0.4,1.2-0.8,2.5-1.3,4c-0.5,1.5-0.9,2.9-1.3,4.4h5.3c-0.4-1.5-0.8-3-1.2-4.5c-0.4-1.5-0.8-2.8-1.1-3.9H166.4z"/>
			<path class="st0" d="M186.4,454.7c-1.2,0-2.2-0.4-2.9-1.1c-0.7-0.7-1.1-1.7-1.1-2.9v-21.9c0.3-0.1,0.8-0.1,1.5-0.2
				c0.7-0.1,1.3-0.1,1.9-0.1c0.6,0,1.2,0.1,1.7,0.1c0.5,0.1,0.9,0.3,1.2,0.5c0.3,0.3,0.6,0.6,0.8,1.1c0.2,0.5,0.3,1,0.3,1.8v16.7
				h9.7c0.2,0.3,0.4,0.7,0.6,1.2c0.2,0.5,0.3,1.1,0.3,1.6c0,1.1-0.2,1.9-0.7,2.4c-0.5,0.5-1.1,0.7-1.9,0.7H186.4z"/>
			<path class="st0" d="M216,434.1c-2.2,0-3.8,0.7-5,2c-1.2,1.3-1.7,3.2-1.7,5.6c0,2.5,0.6,4.3,1.9,5.7c1.3,1.3,3,2,5.2,2
				c1.2,0,2.1-0.2,2.9-0.5c0.8-0.3,1.6-0.7,2.3-1.1c0.5,0.4,0.9,0.9,1.1,1.4c0.3,0.6,0.4,1.2,0.4,1.9c0,1.2-0.6,2.1-1.9,2.9
				c-1.3,0.8-3.2,1.2-5.9,1.2c-1.9,0-3.7-0.3-5.3-0.8c-1.7-0.5-3.1-1.4-4.4-2.5c-1.2-1.1-2.2-2.5-2.9-4.2c-0.7-1.7-1.1-3.7-1.1-6.1
				c0-2.2,0.3-4.1,1-5.8c0.7-1.7,1.6-3.1,2.8-4.3c1.2-1.2,2.6-2,4.2-2.6c1.6-0.6,3.3-0.9,5.2-0.9c2.6,0,4.6,0.4,6,1.3
				c1.4,0.8,2.1,1.9,2.1,3.3c0,0.7-0.2,1.4-0.6,1.9c-0.4,0.5-0.8,1-1.3,1.3c-0.7-0.5-1.5-0.9-2.4-1.2
				C218,434.2,217.1,434.1,216,434.1z"/>
			<path class="st0" d="M233.2,429.7c0.5-0.3,1.2-0.6,2.2-0.8s2-0.4,2.9-0.4c1.4,0,2.7,0.2,3.7,0.6c1.1,0.4,1.8,1.1,2.1,1.9
				c0.5,1.5,1.1,3.2,1.7,5.1s1.2,4,1.8,6c0.6,2.1,1.2,4.1,1.7,6.1c0.6,2,1.1,3.8,1.5,5.4c-0.3,0.4-0.8,0.7-1.5,1
				c-0.7,0.2-1.5,0.4-2.4,0.4c-0.7,0-1.2-0.1-1.7-0.2c-0.5-0.1-0.8-0.3-1.1-0.5c-0.3-0.2-0.5-0.5-0.7-0.9c-0.2-0.4-0.3-0.8-0.5-1.3
				l-0.8-2.9h-7.7c-0.2,0.8-0.5,1.7-0.7,2.6c-0.2,0.9-0.5,1.8-0.7,2.6c-0.4,0.1-0.8,0.3-1.2,0.4c-0.4,0.1-1,0.1-1.6,0.1
				c-1.4,0-2.5-0.2-3.2-0.7c-0.7-0.5-1-1.2-1-2.1c0-0.4,0.1-0.8,0.2-1.2c0.1-0.4,0.2-0.9,0.4-1.4c0.2-0.8,0.5-1.7,0.8-2.8
				c0.4-1.1,0.7-2.4,1.2-3.7s0.9-2.7,1.4-4c0.5-1.4,0.9-2.7,1.4-3.9s0.8-2.3,1.2-3.3C232.7,430.9,233,430.2,233.2,429.7z
				 M238.2,435.1c-0.4,1.2-0.8,2.5-1.3,4c-0.5,1.5-0.9,2.9-1.3,4.4h5.3c-0.4-1.5-0.8-3-1.2-4.5c-0.4-1.5-0.8-2.8-1.1-3.9H238.2z"/>
			<path class="st0" d="M258.2,454.7c-1.2,0-2.2-0.4-2.9-1.1c-0.7-0.7-1.1-1.7-1.1-2.9v-21.9c0.3-0.1,0.8-0.1,1.5-0.2
				c0.7-0.1,1.3-0.1,1.9-0.1c0.6,0,1.2,0.1,1.7,0.1c0.5,0.1,0.9,0.3,1.2,0.5c0.3,0.3,0.6,0.6,0.8,1.1c0.2,0.5,0.3,1,0.3,1.8v16.7
				h9.7c0.2,0.3,0.4,0.7,0.6,1.2c0.2,0.5,0.3,1.1,0.3,1.6c0,1.1-0.2,1.9-0.7,2.4c-0.5,0.5-1.1,0.7-1.9,0.7H258.2z"/>
			<path class="st0" d="M285.7,455.2c-0.5,0-1,0-1.7,0c-0.6,0-1.3-0.1-1.9-0.2c-0.7-0.1-1.3-0.2-2-0.3s-1.3-0.3-1.8-0.5
				c-1.6-0.6-2.3-1.6-2.3-3.1v-19.8c0-0.6,0.2-1.1,0.5-1.4c0.3-0.3,0.8-0.6,1.3-0.8c1.2-0.4,2.5-0.7,3.9-0.8
				c1.4-0.1,2.6-0.2,3.6-0.2c2.2,0,4.2,0.3,6,0.8c1.8,0.5,3.3,1.4,4.6,2.5c1.3,1.1,2.3,2.5,3,4.2c0.7,1.7,1.1,3.7,1.1,6
				c0,2.3-0.3,4.2-1,5.9c-0.7,1.7-1.6,3.1-2.9,4.2c-1.3,1.1-2.8,2-4.5,2.6C289.8,455,287.8,455.2,285.7,455.2z M283.3,449.1
				c0.3,0.1,0.7,0.1,1.1,0.1c0.5,0,0.9,0.1,1.3,0.1c1,0,1.8-0.1,2.6-0.4c0.8-0.3,1.5-0.7,2.1-1.3c0.6-0.6,1-1.4,1.4-2.3
				c0.3-0.9,0.5-2.1,0.5-3.4c0-2.5-0.6-4.5-1.8-5.7c-1.2-1.3-2.8-1.9-4.7-1.9c-0.4,0-0.8,0-1.2,0c-0.4,0-0.8,0.1-1.2,0.1V449.1z"/>
			<path class="st0" d="M311.6,454.4c-0.3,0.1-0.8,0.2-1.5,0.3c-0.7,0.1-1.3,0.1-2,0.1c-0.6,0-1.2,0-1.7-0.1
				c-0.5-0.1-0.9-0.3-1.2-0.5s-0.6-0.6-0.8-1.1c-0.2-0.5-0.3-1-0.3-1.8v-22.4c0.3-0.1,0.8-0.1,1.5-0.2c0.7-0.1,1.3-0.1,1.9-0.1
				c0.6,0,1.2,0,1.7,0.1c0.5,0.1,0.9,0.3,1.2,0.5c0.3,0.3,0.6,0.6,0.8,1.1c0.2,0.5,0.3,1,0.3,1.8V454.4z"/>
			<path class="st0" d="M322.5,429.7c0.5-0.3,1.2-0.6,2.2-0.8s2-0.4,2.9-0.4c1.4,0,2.7,0.2,3.7,0.6c1.1,0.4,1.8,1.1,2.1,1.9
				c0.5,1.5,1.1,3.2,1.7,5.1s1.2,4,1.8,6s1.2,4.1,1.7,6.1c0.6,2,1.1,3.8,1.5,5.4c-0.3,0.4-0.8,0.7-1.5,1s-1.5,0.4-2.4,0.4
				c-0.7,0-1.2-0.1-1.7-0.2c-0.5-0.1-0.8-0.3-1.1-0.5c-0.3-0.2-0.5-0.5-0.7-0.9c-0.2-0.4-0.3-0.8-0.5-1.3l-0.8-2.9h-7.7
				c-0.2,0.8-0.5,1.7-0.7,2.6c-0.2,0.9-0.5,1.8-0.7,2.6c-0.4,0.1-0.8,0.3-1.2,0.4c-0.4,0.1-1,0.1-1.6,0.1c-1.4,0-2.5-0.2-3.2-0.7
				c-0.7-0.5-1-1.2-1-2.1c0-0.4,0.1-0.8,0.2-1.2c0.1-0.4,0.2-0.9,0.4-1.4c0.2-0.8,0.5-1.7,0.8-2.8c0.4-1.1,0.7-2.4,1.2-3.7
				c0.4-1.3,0.9-2.7,1.4-4c0.5-1.4,0.9-2.7,1.4-3.9c0.4-1.2,0.8-2.3,1.2-3.3C322.1,430.9,322.3,430.2,322.5,429.7z M327.6,435.1
				c-0.4,1.2-0.8,2.5-1.3,4c-0.5,1.5-0.9,2.9-1.3,4.4h5.3c-0.4-1.5-0.8-3-1.2-4.5c-0.4-1.5-0.8-2.8-1.1-3.9H327.6z"/>
			<path class="st0" d="M369.8,448.3c-0.4,0.3-0.8,0.6-1.4,0.7c-0.6,0.2-1.2,0.3-2,0.3c-1,0-1.9-0.1-2.5-0.4
				c-0.7-0.3-1.1-0.7-1.3-1.3c-0.8-2.5-1.4-4.5-1.9-6c-0.5-1.5-0.9-2.9-1.2-4h-0.2c-0.1,1.7-0.1,3.2-0.2,4.6c0,1.4-0.1,2.7-0.1,4
				c0,1.3,0,2.6-0.1,3.9c0,1.3-0.1,2.8-0.2,4.4c-0.4,0.1-0.8,0.3-1.4,0.4c-0.6,0.1-1.2,0.1-1.8,0.1c-1.2,0-2.2-0.2-2.9-0.6
				c-0.7-0.4-1-1.1-1-2.2l1.2-21.6c0.2-0.4,0.7-0.8,1.5-1.2c0.8-0.4,1.8-0.6,3.2-0.6c1.5,0,2.7,0.2,3.5,0.7c0.8,0.5,1.5,1.2,1.9,2.3
				c0.3,0.7,0.5,1.5,0.8,2.3c0.3,0.9,0.6,1.8,0.9,2.7c0.3,0.9,0.6,1.9,0.9,2.8c0.3,0.9,0.5,1.7,0.8,2.5h0.2c0.7-2.4,1.4-4.7,2-6.9
				c0.7-2.2,1.3-4.1,1.9-5.6c0.4-0.2,1-0.4,1.6-0.6c0.7-0.2,1.4-0.2,2.2-0.2c1.4,0,2.5,0.2,3.4,0.6c0.9,0.4,1.4,1,1.5,1.8
				c0.1,0.6,0.2,1.4,0.4,2.6c0.1,1.2,0.3,2.5,0.4,4c0.1,1.5,0.3,3,0.4,4.7c0.1,1.6,0.3,3.2,0.4,4.7c0.1,1.5,0.2,2.9,0.3,4.1
				c0.1,1.3,0.1,2.2,0.2,2.9c-0.5,0.3-1,0.5-1.5,0.6c-0.5,0.1-1.2,0.2-2,0.2c-1.1,0-2-0.2-2.7-0.6c-0.7-0.4-1.1-1.1-1.2-2.2
				c-0.2-3.1-0.3-5.8-0.3-8.3s-0.1-4.5-0.2-6.2H373c-0.3,1.1-0.7,2.5-1.2,4.1C371.3,443.5,370.6,445.7,369.8,448.3z"/>
			<path class="st0" d="M391.5,429.7c0.5-0.3,1.2-0.6,2.2-0.8s2-0.4,2.9-0.4c1.4,0,2.7,0.2,3.7,0.6c1.1,0.4,1.8,1.1,2.1,1.9
				c0.5,1.5,1.1,3.2,1.7,5.1c0.6,1.9,1.2,4,1.8,6s1.2,4.1,1.7,6.1c0.6,2,1.1,3.8,1.5,5.4c-0.3,0.4-0.8,0.7-1.5,1
				c-0.7,0.2-1.5,0.4-2.4,0.4c-0.7,0-1.2-0.1-1.7-0.2c-0.5-0.1-0.8-0.3-1.1-0.5c-0.3-0.2-0.5-0.5-0.7-0.9c-0.2-0.4-0.3-0.8-0.5-1.3
				l-0.8-2.9h-7.7c-0.2,0.8-0.5,1.7-0.7,2.6c-0.2,0.9-0.5,1.8-0.7,2.6c-0.4,0.1-0.8,0.3-1.2,0.4c-0.4,0.1-1,0.1-1.6,0.1
				c-1.4,0-2.5-0.2-3.2-0.7c-0.7-0.5-1-1.2-1-2.1c0-0.4,0.1-0.8,0.2-1.2c0.1-0.4,0.2-0.9,0.4-1.4c0.2-0.8,0.5-1.7,0.8-2.8
				c0.4-1.1,0.7-2.4,1.2-3.7c0.4-1.3,0.9-2.7,1.4-4c0.5-1.4,0.9-2.7,1.4-3.9c0.4-1.2,0.8-2.3,1.2-3.3
				C391,430.9,391.3,430.2,391.5,429.7z M396.6,435.1c-0.4,1.2-0.8,2.5-1.3,4c-0.5,1.5-0.9,2.9-1.3,4.4h5.3c-0.4-1.5-0.8-3-1.2-4.5
				c-0.4-1.5-0.8-2.8-1.1-3.9H396.6z"/>
			<path class="st0" d="M424.2,454.4c-0.3,0.1-0.8,0.2-1.4,0.3c-0.6,0.1-1.3,0.1-1.9,0.1c-1.3,0-2.3-0.2-2.9-0.7
				c-0.6-0.4-1-1.4-1-2.8v-5.7c-0.7-1-1.5-2.2-2.3-3.5c-0.8-1.3-1.6-2.6-2.4-3.9c-0.8-1.3-1.5-2.6-2.2-3.9c-0.7-1.3-1.2-2.5-1.7-3.5
				c0.4-0.5,0.9-1,1.5-1.4c0.6-0.4,1.4-0.6,2.4-0.6c1.1,0,2,0.2,2.7,0.7c0.7,0.5,1.3,1.3,2,2.5l3.5,7.1h0.3c0.4-0.9,0.7-1.7,1-2.4
				c0.3-0.7,0.6-1.4,0.9-2.2c0.3-0.7,0.6-1.5,0.9-2.2c0.3-0.8,0.7-1.7,1.1-2.7c0.5-0.3,1.1-0.5,1.7-0.6c0.6-0.1,1.2-0.2,1.8-0.2
				c1,0,1.8,0.3,2.5,0.8c0.7,0.5,1,1.3,1,2.4c0,0.3-0.1,0.7-0.2,1.2c-0.1,0.5-0.5,1.2-1,2.2c-0.5,1-1.2,2.3-2.2,4
				c-1,1.7-2.3,3.8-4,6.5V454.4z"/>
			<path class="st0" d="M433.1,441.7c0-2.2,0.3-4.1,1-5.8c0.7-1.7,1.6-3.1,2.8-4.3c1.2-1.1,2.6-2,4.2-2.6c1.6-0.6,3.4-0.9,5.3-0.9
				c1.9,0,3.6,0.3,5.3,0.9s3,1.5,4.3,2.6c1.2,1.1,2.2,2.6,2.9,4.3c0.7,1.7,1,3.6,1,5.8s-0.3,4.2-1,5.9c-0.7,1.7-1.6,3.1-2.8,4.3
				c-1.2,1.1-2.6,2-4.3,2.6c-1.6,0.6-3.4,0.9-5.3,0.9c-1.9,0-3.7-0.3-5.3-0.9c-1.6-0.6-3-1.5-4.2-2.6c-1.2-1.2-2.1-2.6-2.8-4.3
				C433.4,445.8,433.1,443.9,433.1,441.7z M440.7,441.7c0,2.6,0.5,4.5,1.6,5.8c1,1.3,2.4,1.9,4.2,1.9c1.8,0,3.2-0.6,4.2-1.9
				c1-1.3,1.6-3.2,1.6-5.8c0-2.5-0.5-4.4-1.5-5.7c-1-1.3-2.4-1.9-4.2-1.9c-1.8,0-3.2,0.6-4.2,1.9
				C441.3,437.2,440.7,439.1,440.7,441.7z"/>
			<path class="st0" d="M471.5,446.3v8.1c-0.3,0.1-0.8,0.2-1.5,0.3c-0.7,0.1-1.3,0.1-2,0.1c-0.6,0-1.2,0-1.7-0.1
				c-0.5-0.1-0.9-0.3-1.2-0.5c-0.3-0.3-0.6-0.6-0.7-1.1c-0.2-0.5-0.3-1-0.3-1.8v-19.9c0-0.6,0.2-1.1,0.5-1.4
				c0.3-0.3,0.8-0.6,1.3-0.8c1-0.3,2.1-0.6,3.3-0.7c1.3-0.2,2.6-0.2,4.1-0.2c3.9,0,6.8,0.8,8.8,2.5c2,1.6,3,3.9,3,6.6
				c0,1.8-0.5,3.2-1.4,4.5c-0.9,1.2-2,2.2-3.2,2.9c1,1.4,2,2.7,3,3.9c1,1.2,1.8,2.3,2.3,3.3c-0.3,1-0.8,1.7-1.5,2.3
				c-0.7,0.5-1.6,0.8-2.5,0.8c-0.6,0-1.2-0.1-1.6-0.2c-0.5-0.1-0.8-0.3-1.2-0.6s-0.6-0.6-0.9-0.9c-0.3-0.4-0.5-0.8-0.8-1.2l-3.6-5.7
				H471.5z M474.2,440.6c1.1,0,1.9-0.3,2.5-0.8c0.6-0.6,0.9-1.4,0.9-2.4s-0.3-1.9-1-2.4c-0.7-0.6-1.8-0.8-3.3-0.8c-0.4,0-0.8,0-1,0
				c-0.3,0-0.5,0.1-0.8,0.1v6.4H474.2z"/>
			<path class="st0" d="M187.3,499.3c-0.5,0-1,0-1.7,0c-0.6,0-1.3-0.1-1.9-0.2c-0.7-0.1-1.3-0.2-2-0.3c-0.7-0.1-1.3-0.3-1.8-0.5
				c-1.6-0.6-2.3-1.6-2.3-3.1v-19.8c0-0.6,0.2-1.1,0.5-1.4c0.3-0.3,0.8-0.6,1.3-0.8c1.2-0.4,2.5-0.7,3.9-0.8
				c1.4-0.1,2.6-0.2,3.6-0.2c2.2,0,4.2,0.3,6,0.8c1.8,0.5,3.3,1.4,4.6,2.5c1.3,1.1,2.3,2.5,3,4.2c0.7,1.7,1.1,3.7,1.1,6
				c0,2.3-0.3,4.2-1,5.9c-0.7,1.7-1.6,3.1-2.9,4.2c-1.3,1.1-2.8,2-4.5,2.6C191.4,499.1,189.5,499.3,187.3,499.3z M185,493.2
				c0.3,0.1,0.7,0.1,1.1,0.1c0.5,0,0.9,0.1,1.3,0.1c1,0,1.8-0.1,2.6-0.4c0.8-0.3,1.5-0.7,2.1-1.3c0.6-0.6,1-1.4,1.4-2.3
				c0.3-0.9,0.5-2.1,0.5-3.4c0-2.5-0.6-4.5-1.8-5.7c-1.2-1.3-2.8-1.9-4.7-1.9c-0.4,0-0.8,0-1.2,0c-0.4,0-0.8,0.1-1.2,0.1V493.2z"/>
			<path class="st0" d="M205.8,476.9c0-1.2,0.4-2.2,1.1-2.9c0.7-0.7,1.7-1.1,2.9-1.1h14c0.2,0.3,0.4,0.7,0.5,1.2
				c0.2,0.5,0.2,1,0.2,1.6c0,1.1-0.2,1.8-0.7,2.3c-0.5,0.5-1.1,0.7-1.8,0.7H213v3.9h9.5c0.2,0.3,0.4,0.7,0.5,1.2
				c0.2,0.5,0.2,1,0.2,1.6c0,1.1-0.2,1.8-0.7,2.3c-0.5,0.5-1.1,0.7-1.8,0.7H213v4.4h10.9c0.2,0.3,0.4,0.7,0.5,1.2
				c0.2,0.5,0.2,1,0.2,1.6c0,1.1-0.2,1.8-0.7,2.3c-0.5,0.5-1.1,0.7-1.8,0.7h-12.4c-1.2,0-2.2-0.4-2.9-1.1c-0.7-0.7-1.1-1.7-1.1-2.9
				V476.9z"/>
			<path class="st0" d="M247.4,499.3c-0.5,0-1,0-1.7,0c-0.6,0-1.3-0.1-2-0.2c-0.7-0.1-1.4-0.2-2.1-0.3c-0.7-0.1-1.3-0.3-1.9-0.5
				c-1.6-0.6-2.3-1.6-2.3-3.1v-19.8c0-0.6,0.2-1.1,0.5-1.4c0.3-0.3,0.8-0.6,1.3-0.8c1-0.3,2.2-0.6,3.6-0.7c1.4-0.2,2.9-0.2,4.4-0.2
				c3.6,0,6.4,0.6,8.3,1.8c1.9,1.2,2.9,3.1,2.9,5.6c0,1.3-0.4,2.4-1.1,3.3c-0.7,0.9-1.7,1.6-3,2c1.4,0.4,2.6,1.1,3.5,2.2
				c0.9,1,1.4,2.4,1.4,3.9c0,2.8-1,4.9-3.1,6.2S251.3,499.3,247.4,499.3z M244.7,483h3.1c1.2,0,2.1-0.2,2.6-0.7
				c0.6-0.5,0.8-1.1,0.8-2c0-0.8-0.3-1.4-1-1.8c-0.6-0.5-1.6-0.7-2.9-0.7c-0.4,0-0.9,0-1.5,0s-1,0.1-1.3,0.1V483z M244.7,493.4
				c0.4,0.1,0.9,0.2,1.5,0.2c0.6,0,1.2,0.1,1.8,0.1c1.1,0,2.1-0.2,2.8-0.7c0.7-0.5,1.1-1.2,1.1-2.2c0-0.9-0.3-1.6-0.9-2
				c-0.6-0.4-1.6-0.6-2.8-0.6h-3.5V493.4z"/>
			<path class="st0" d="M262.4,485.8c0-2.2,0.3-4.2,1-5.8c0.7-1.7,1.6-3.1,2.8-4.3c1.2-1.1,2.6-2,4.2-2.6s3.4-0.9,5.3-0.9
				c1.9,0,3.6,0.3,5.3,0.9c1.6,0.6,3,1.5,4.3,2.6c1.2,1.1,2.2,2.6,2.9,4.3c0.7,1.7,1,3.6,1,5.8c0,2.2-0.3,4.2-1,5.9
				c-0.7,1.7-1.6,3.1-2.8,4.3c-1.2,1.1-2.6,2-4.3,2.6c-1.6,0.6-3.4,0.9-5.3,0.9c-1.9,0-3.7-0.3-5.3-0.9c-1.6-0.6-3-1.5-4.2-2.6
				c-1.2-1.2-2.1-2.6-2.8-4.3C262.7,489.9,262.4,488,262.4,485.8z M270,485.8c0,2.6,0.5,4.5,1.6,5.8c1,1.3,2.4,1.9,4.2,1.9
				c1.8,0,3.2-0.6,4.2-1.9c1-1.3,1.6-3.2,1.6-5.8c0-2.5-0.5-4.4-1.5-5.7c-1-1.3-2.4-1.9-4.2-1.9c-1.8,0-3.2,0.6-4.2,1.9
				C270.6,481.3,270,483.2,270,485.8z"/>
			<path class="st0" d="M316.7,494.5c0,0.9-0.2,1.5-0.5,1.9c-0.3,0.4-0.8,0.8-1.5,1.2c-0.4,0.2-0.9,0.4-1.5,0.7s-1.2,0.4-1.9,0.6
				c-0.7,0.2-1.4,0.3-2.2,0.4c-0.8,0.1-1.5,0.1-2.3,0.1c-2,0-3.9-0.3-5.7-0.8c-1.8-0.6-3.3-1.4-4.6-2.5c-1.3-1.1-2.3-2.5-3.1-4.2
				c-0.8-1.7-1.1-3.6-1.1-5.8c0-2.3,0.4-4.3,1.2-6.1c0.8-1.7,1.9-3.2,3.3-4.3c1.4-1.1,2.9-2,4.7-2.6c1.8-0.6,3.6-0.8,5.4-0.8
				c2.7,0,4.8,0.4,6.4,1.3c1.6,0.9,2.4,2,2.4,3.4c0,0.7-0.2,1.4-0.6,1.9c-0.4,0.5-0.8,1-1.3,1.3c-0.7-0.4-1.6-0.8-2.6-1.2
				c-1.1-0.4-2.3-0.6-3.6-0.6c-2.4,0-4.3,0.7-5.7,2c-1.4,1.4-2.1,3.2-2.1,5.6c0,1.3,0.2,2.4,0.6,3.4c0.4,0.9,0.9,1.7,1.5,2.3
				c0.6,0.6,1.4,1.1,2.2,1.4c0.8,0.3,1.7,0.4,2.7,0.4c0.6,0,1.2-0.1,1.7-0.2c0.5-0.1,0.8-0.2,1.1-0.4v-4h-4.5
				c-0.2-0.3-0.3-0.7-0.5-1.2c-0.2-0.5-0.2-1-0.2-1.6c0-1,0.2-1.8,0.7-2.2s1.1-0.7,1.8-0.7h7.2c0.8,0,1.5,0.2,2,0.7
				c0.5,0.5,0.7,1.1,0.7,2V494.5z"/>
			<path class="st0" d="M320.3,485.8c0-2.2,0.3-4.2,1-5.8c0.7-1.7,1.6-3.1,2.8-4.3c1.2-1.1,2.6-2,4.2-2.6s3.4-0.9,5.3-0.9
				c1.9,0,3.6,0.3,5.3,0.9s3,1.5,4.3,2.6c1.2,1.1,2.2,2.6,2.9,4.3c0.7,1.7,1,3.6,1,5.8c0,2.2-0.3,4.2-1,5.9
				c-0.7,1.7-1.6,3.1-2.8,4.3c-1.2,1.1-2.6,2-4.3,2.6c-1.6,0.6-3.4,0.9-5.3,0.9c-1.9,0-3.7-0.3-5.3-0.9c-1.6-0.6-3-1.5-4.2-2.6
				c-1.2-1.2-2.1-2.6-2.8-4.3S320.3,488,320.3,485.8z M327.9,485.8c0,2.6,0.5,4.5,1.6,5.8c1,1.3,2.4,1.9,4.2,1.9
				c1.8,0,3.2-0.6,4.2-1.9c1-1.3,1.6-3.2,1.6-5.8c0-2.5-0.5-4.4-1.5-5.7c-1-1.3-2.4-1.9-4.2-1.9c-1.8,0-3.2,0.6-4.2,1.9
				S327.9,483.2,327.9,485.8z"/>
			<path class="st0" d="M349.4,478.9c-0.2-0.3-0.4-0.7-0.6-1.3s-0.3-1.1-0.3-1.7c0-1.1,0.2-1.9,0.7-2.4c0.5-0.5,1.1-0.7,1.9-0.7
				h18.5c0.2,0.3,0.4,0.7,0.6,1.3c0.2,0.5,0.3,1.1,0.3,1.7c0,1.1-0.2,1.9-0.7,2.4c-0.5,0.5-1.1,0.7-1.9,0.7h-4.7v19.6
				c-0.3,0.1-0.8,0.2-1.5,0.3c-0.7,0.1-1.3,0.1-2,0.1c-0.6,0-1.2,0-1.7-0.1c-0.5-0.1-0.9-0.3-1.2-0.5c-0.3-0.3-0.6-0.6-0.8-1.1
				c-0.2-0.5-0.3-1-0.3-1.8v-16.4H349.4z"/>
			<path class="st0" d="M377.9,473.8c0.5-0.3,1.2-0.6,2.2-0.8s2-0.4,2.9-0.4c1.4,0,2.7,0.2,3.7,0.6c1.1,0.4,1.8,1.1,2.1,1.9
				c0.5,1.5,1.1,3.2,1.7,5.1s1.2,4,1.8,6c0.6,2.1,1.2,4.1,1.7,6.1c0.6,2,1.1,3.8,1.5,5.4c-0.3,0.4-0.8,0.7-1.5,1
				c-0.7,0.2-1.5,0.4-2.4,0.4c-0.7,0-1.2-0.1-1.7-0.2s-0.8-0.3-1.1-0.5c-0.3-0.2-0.5-0.5-0.7-0.9c-0.2-0.4-0.3-0.8-0.5-1.3l-0.8-2.9
				h-7.7c-0.2,0.8-0.5,1.7-0.7,2.6c-0.2,0.9-0.5,1.8-0.7,2.6c-0.4,0.1-0.8,0.3-1.2,0.4s-1,0.1-1.6,0.1c-1.4,0-2.5-0.2-3.2-0.7
				c-0.7-0.5-1-1.2-1-2.1c0-0.4,0.1-0.8,0.2-1.2c0.1-0.4,0.2-0.9,0.4-1.4c0.2-0.8,0.5-1.7,0.8-2.8c0.4-1.1,0.7-2.4,1.2-3.7
				c0.4-1.3,0.9-2.7,1.4-4c0.5-1.4,0.9-2.7,1.4-3.9c0.4-1.2,0.8-2.3,1.2-3.3C377.4,475,377.7,474.3,377.9,473.8z M385.4,462.6
				c1.4,0.1,2.4,0.4,3,1c0.6,0.6,0.9,1.2,0.9,1.9c0,0.8-0.2,1.5-0.7,1.9c-0.5,0.5-1.2,0.9-2.2,1.3l-5.8,2.3c-0.8-0.2-1.5-0.5-2-1
				c-0.5-0.5-0.7-1.1-0.7-1.7c0-0.4,0.1-0.8,0.3-1.1c0.2-0.4,0.5-0.7,1-0.9L385.4,462.6z M383,479.2c-0.4,1.2-0.8,2.5-1.3,4
				c-0.5,1.5-0.9,2.9-1.3,4.4h5.3c-0.4-1.5-0.8-3-1.2-4.5c-0.4-1.5-0.8-2.8-1.1-3.9H383z"/>
			<path class="st0" d="M417.2,499.3c-0.5,0-1,0-1.7,0c-0.6,0-1.3-0.1-1.9-0.2c-0.7-0.1-1.3-0.2-2-0.3s-1.3-0.3-1.8-0.5
				c-1.6-0.6-2.3-1.6-2.3-3.1v-19.8c0-0.6,0.2-1.1,0.5-1.4c0.3-0.3,0.8-0.6,1.3-0.8c1.2-0.4,2.5-0.7,3.9-0.8s2.6-0.2,3.6-0.2
				c2.2,0,4.2,0.3,6,0.8c1.8,0.5,3.3,1.4,4.6,2.5c1.3,1.1,2.3,2.5,3,4.2c0.7,1.7,1.1,3.7,1.1,6c0,2.3-0.3,4.2-1,5.9
				c-0.7,1.7-1.6,3.1-2.9,4.2c-1.3,1.1-2.8,2-4.5,2.6S419.3,499.3,417.2,499.3z M414.8,493.2c0.3,0.1,0.7,0.1,1.1,0.1
				c0.5,0,0.9,0.1,1.3,0.1c1,0,1.8-0.1,2.6-0.4c0.8-0.3,1.5-0.7,2.1-1.3c0.6-0.6,1-1.4,1.4-2.3c0.3-0.9,0.5-2.1,0.5-3.4
				c0-2.5-0.6-4.5-1.8-5.7c-1.2-1.3-2.8-1.9-4.7-1.9c-0.4,0-0.8,0-1.2,0c-0.4,0-0.8,0.1-1.2,0.1V493.2z"/>
			<path class="st0" d="M433,495.2c0-1.2,0.4-2.2,1.1-3c0.7-0.8,1.7-1.2,3-1.2c1.3,0,2.3,0.4,3,1.2c0.7,0.8,1.1,1.8,1.1,3
				c0,1.2-0.4,2.2-1.1,3c-0.7,0.8-1.7,1.2-3,1.2c-1.3,0-2.3-0.4-3-1.2C433.3,497.4,433,496.4,433,495.2z"/>
			<path class="st0" d="M457.1,478.2c-2.2,0-3.8,0.7-5,2c-1.2,1.3-1.7,3.2-1.7,5.6c0,2.5,0.6,4.3,1.9,5.7c1.3,1.3,3,2,5.2,2
				c1.2,0,2.1-0.2,2.9-0.5c0.8-0.3,1.6-0.7,2.3-1.1c0.5,0.4,0.9,0.9,1.1,1.4c0.3,0.6,0.4,1.2,0.4,1.9c0,1.2-0.6,2.1-1.9,2.9
				c-1.3,0.8-3.2,1.2-5.9,1.2c-1.9,0-3.7-0.3-5.3-0.8c-1.7-0.5-3.1-1.4-4.4-2.5c-1.2-1.1-2.2-2.5-2.9-4.2c-0.7-1.7-1.1-3.7-1.1-6.1
				c0-2.2,0.3-4.1,1-5.8c0.7-1.7,1.6-3.1,2.8-4.3c1.2-1.2,2.6-2,4.2-2.6c1.6-0.6,3.3-0.9,5.2-0.9c2.6,0,4.6,0.4,6,1.3
				c1.4,0.8,2.1,1.9,2.1,3.3c0,0.7-0.2,1.4-0.6,1.9c-0.4,0.5-0.8,1-1.3,1.3c-0.7-0.5-1.5-0.9-2.4-1.2
				C459.2,478.3,458.2,478.2,457.1,478.2z"/>
		</g>
		<rect x="112.9" y="410.4" class="st0" width="414.2" height="4"/>
	</g>
</g>
</svg>
