<?xml version="1.0" encoding="utf-8"?>
<!-- Generator: Adobe Illustrator 26.0.0, SVG Export Plug-In . SVG Version: 6.00 Build 0)  -->
<svg version="1.1" id="Capa_1" xmlns="http://www.w3.org/2000/svg" xmlns:xlink="http://www.w3.org/1999/xlink" x="0px" y="0px"
	 viewBox="0 0 496 512" style="enable-background:new 0 0 496 512;" xml:space="preserve">
<path d="M333.7,22.4c-201-67.8-385.4,115-320.4,315.9c23.4,72.3,80.2,129.1,152.5,152.5c200.8,65,383.7-119.4,315.9-320.4
	C458.1,100.7,403.3,45.9,333.7,22.4z M370.6,234.4l-116,146.5c-2.5,3.2-7.4,3.2-9.9,0L128.9,234.4c-8.7-11.9-11.1-50.4,21.6-72
	c28.1-18.1,54.6-4.2,68.5,11.9c36.9,45.6,29,48.7,61.5,0.4c0.2-0.2,0.3-0.5,0.5-0.7c14-16,40.3-29.6,67.8-11.6
	C381.7,184,379.4,222.4,370.6,234.4L370.6,234.4z"/>
</svg>
