<?xml version="1.0" encoding="utf-8"?>
<!-- Generator: Adobe Illustrator 26.0.0, SVG Export Plug-In . SVG Version: 6.00 Build 0)  -->
<svg version="1.1" id="Capa_1" xmlns="http://www.w3.org/2000/svg" xmlns:xlink="http://www.w3.org/1999/xlink" x="0px" y="0px"
	 viewBox="0 0 640 512" style="enable-background:new 0 0 640 512;" xml:space="preserve">
<style type="text/css">
	.st0{fill:#FFFFFF;}
</style>
<path d="M361.6,112c0,23.2-17.9,42-42,42c-22.3,0-42-18.8-42-42s19.8-42,42-42C343.7,70,361.6,88.8,361.6,112z M176.6,213
	c0,23.2-17.9,42-42,42c-22.3,0-42-18.8-42-42s19.8-42,42-42C158.7,170.9,176.6,189.7,176.6,213z M462.5,213c0-23.2,19.8-42,42-42
	c24.2,0,42,18.8,42,42s-17.9,42-42,42C482.2,255,462.5,236.2,462.5,213z M193.4,406.4c0,18.6-14.1,33.6-33.6,33.6h-50.5
	c-17.7,0-33.6-15-33.6-33.6v-40.5l-27.3,52.5c-6.6,12.2-21.9,16.8-34.2,10.2c-12.3-6.6-16.9-21.9-10.2-34.2l39.8-73.9
	c16.1-30,47.5-48.7,81.4-48.7h20.6c17.1,0,33.5,4.7,47.7,13.2l35.2-65.5c16.2-30,47.5-49.6,81.5-49.6h20.6c34,0,65.3,19.7,81.5,49.6
	l35.2,65.5c14.2-8.5,30.6-13.2,47.7-13.2h20.6c34,0,65.3,18.7,81.5,48.7l39.7,73.9c6.6,12.3,2,27.5-10.2,34.2
	c-12.3,6.6-27.6,2-34.2-10.2l-29.2-52.5v40.5c0,18.6-14.1,33.6-33.6,33.6h-50.5c-17.7,0-33.6-15-33.6-33.6v-40.5l-27.3,52.5
	c-6.6,12.2-21.9,16.8-34.2,10.2c-12.3-6.6-16.8-21.9-10.2-34.2l38.2-71c-1.8-1.7-3.4-3.7-4.5-6L378.4,265v57.3
	c0,18.6-14.1,33.6-33.6,33.6h-50.5c-17.7,0-33.6-15-33.6-33.6V265l-27.3,52.5c-2.1,2.3-2.7,4.3-4.5,6l38.2,71
	c6.6,12.3,2,27.5-10.2,34.2c-12.3,6.6-27.6,2-34.2-10.2l-29.2-52.5V406.4z"/>
<path class="st0" d="M530.6,349.9c-7.2-4.6-14.1-9.7-19.4-16.5c-3.1-3.9-4.8-8.4-4.8-13.4c0.1-6.9,3.9-12.2,10.1-13.8
	c4.9-1.2,9,0.3,12.4,3.8c0.6,0.6,1.1,1.3,1.7,2c0.8-0.9,1.5-1.8,2.4-2.6c7.7-6.9,19.3-3.1,21.4,7c1.6,7.5-1.2,13.6-6,19.1
	C544,340.5,536.8,346.1,530.6,349.9z"/>
<path class="st0" d="M348.8,252.1c-7.2-4.6-14.1-9.7-19.4-16.5c-3.1-3.9-4.8-8.4-4.8-13.4c0.1-6.9,3.9-12.2,10.1-13.8
	c4.9-1.2,9,0.3,12.4,3.8c0.6,0.6,1.1,1.3,1.7,2c0.8-0.9,1.5-1.8,2.4-2.6c7.7-6.9,19.3-3.1,21.4,7c1.6,7.5-1.2,13.6-6,19.1
	C362.2,242.7,355,248.4,348.8,252.1z"/>
<path class="st0" d="M152.2,358.3c-7.2-4.6-14.1-9.7-19.4-16.5c-3.1-3.9-4.8-8.4-4.8-13.4c0.1-6.9,3.9-12.2,10.1-13.8
	c4.9-1.2,9,0.3,12.4,3.8c0.6,0.6,1.1,1.3,1.7,2c0.8-0.9,1.5-1.8,2.4-2.6c7.7-6.9,19.3-3.1,21.4,7c1.6,7.5-1.2,13.6-6,19.1
	C165.6,348.9,158.4,354.5,152.2,358.3z"/>
</svg>
