<?xml version="1.0" encoding="utf-8"?>
<!-- Generator: Adobe Illustrator 26.3.1, SVG Export Plug-In . SVG Version: 6.00 Build 0)  -->
<svg version="1.1" id="Capa_1" xmlns="http://www.w3.org/2000/svg" xmlns:xlink="http://www.w3.org/1999/xlink" x="0px" y="0px"
	 viewBox="0 0 640 512" style="enable-background:new 0 0 640 512;" xml:space="preserve">
<style type="text/css">
	.st0{fill:#FFFFFF;}
</style>
<g>
	<path class="st0" d="M566.7,266.8c-8.3-0.1-16.5-0.2-24.8-0.2c-37.9-0.1-75.8-0.2-113.7-0.4c-8-0.1-13.5,5.3-12.9,14.3
		c0.1,1.8,0.7,3.7,1.6,5.2c28.3,48.9,56.6,97.8,84.9,146.6c0.4,0.7,0.8,1.4,1.4,2.4c-9.5,8.6-19.1,17.1-28.9,26
		c-43.9-77-87.8-153.7-131.8-230.8c0.8-0.1,1.4-0.2,2-0.2c73.4,0,146.8,0,220.1,0.1c0.7,0,1.4,0.2,2.1,0.2
		C566.7,242.3,566.7,254.6,566.7,266.8z"/>
	<path class="st0" d="M165.7,461.4c-9.5-8.8-18.7-17.5-28-26.2c4.8-8.4,9.6-16.8,14.3-25.1c23.7-41.5,47.5-83,71.1-124.6
		c4.2-7.4,0.6-19.4-11.1-19.3c-17.5,0.2-34.9,0.1-52.4,0.2c-27.8,0.1-55.5,0.2-83.3,0.3c-0.9,0-1.8,0-2.9,0c0-0.8-0.1-1.5-0.1-2.2
		c-0.1-10.9-0.1-21.8-0.2-32.8c0-1.9,0.5-2.5,2.4-2.5c74,0.1,148,0,222,0c0.6,0,1.1,0,2.1,0C255.1,306.8,210.5,384,165.7,461.4z"/>
	<path class="st0" d="M228.8,496.4c-10.8-5.3-21.6-10.5-32.6-15.9c41.2-70.7,82.3-141.3,123.6-212.2c42,70.4,83.8,140.5,125.7,210.7
		c-11.3,5.9-22.3,11.6-33.6,17.5c-0.5-0.8-1-1.5-1.4-2.2c-26.6-45.2-53.2-90.3-79.6-135.5c-4.3-7.4-16.5-7.4-20.9,0
		c-26.5,45-53.2,90-79.8,134.9C229.9,494.6,229.4,495.4,228.8,496.4z"/>
	<path class="st0" d="M321.7,15.5c29.6,0.1,53,23.7,52.9,53.3c-0.1,29.3-24,52.8-53.6,52.7c-29-0.1-52.5-24.1-52.4-53.2
		C268.9,38.9,292.5,15.4,321.7,15.5z"/>
	<path class="st0" d="M309.5,140.5c1.4,0,2.7,0,3.9,0c10.8,0,21.7,0,32.5-0.1c1.7,0,2.8,0.4,3.9,1.7c12.9,14.3,25.9,28.5,38.9,42.7
		c0.5,0.5,0.9,1.2,1.3,1.8c0.2-0.1,0.4-0.3,0.6-0.4c0-15.2,0-30.3,0-45.7c9.9,0,19.5,0,29.3,0c0,22.9,0,45.7,0,68.8
		c-0.6,0-1.3,0.1-2,0.1c-12.1,0-24.2,0-36.3,0c-1.5,0-2.4-0.4-3.4-1.5c-12.2-14.1-24.5-28.1-36.7-42.1c-0.8-0.9-1.6-1.7-2.7-3
		c0,15.8,0,31,0,46.4c-9.9,0-19.6,0-29.4,0C309.5,186.5,309.5,163.7,309.5,140.5z"/>
	<path class="st0" d="M97.7,186c10,0,19.8,0,29.5,0c0.1,0.1,0.3,0.3,0.3,0.4c-0.1,4.5,2.4,6.9,6.5,8c7.6,2,15.2,2.2,22.9,0.4
		c1.1-0.3,2.1-0.7,3.1-1.2c1.6-0.8,2.6-2.1,2.7-3.9c0-1.9-1.1-3.2-2.8-3.8c-3.2-1-6.4-1.9-9.6-2.5c-10.5-2-21.1-3.8-31.7-5.9
		c-4.8-1-9.3-2.8-13.2-5.8c-8.5-6.6-8.4-18.1,0.1-24.6c5.2-3.9,11.3-5.7,17.5-6.8c16.1-2.6,32.2-2.7,48.3,0.3
		c4.9,0.9,9.6,2.5,13.6,5.5c4.2,3.2,6.4,7.4,6.2,13c-0.7,0.1-1.4,0.2-2.1,0.2c-8.1,0-16.1,0-24.2,0.1c-1.4,0-2.2-0.2-2.6-1.8
		c-0.6-2.4-2.7-3.4-4.8-4.2c-5-1.7-10.2-1.8-15.5-1.4c-2.2,0.1-4.4,0.5-6.5,1.1c-2,0.6-4.1,1.5-4.1,4.1c0,2.6,1.8,3.7,3.9,4.3
		c3.7,1,7.5,1.8,11.3,2.5c10.5,2.1,21.1,4,31.6,6.4c3.2,0.7,6.4,2.4,9.2,4.3c9.8,6.5,10,18.9,0.6,25.9c-5.3,3.9-11.4,5.8-17.7,6.9
		c-17.5,3-35.1,3.3-52.6-0.3c-4.5-0.9-8.8-2.5-12.6-5.3C99.6,197.9,97.6,192.5,97.7,186z"/>
	<path class="st0" d="M425.8,209.3c2.1-3.1,4.1-6,6.1-8.9c13.4-19.3,26.8-38.6,40.2-57.9c0.8-1.2,1.7-1.8,3.2-1.8
		c10.2,0.1,20.3,0,30.5,0.1c0.9,0,2.2,0.5,2.7,1.3c14.7,22.1,29.4,44.3,44,66.4c0.2,0.2,0.3,0.5,0.5,0.9c-0.6,0.1-1.1,0.2-1.6,0.2
		c-10.2,0-20.3,0-30.5,0c-1.4,0-2.1-0.4-2.8-1.6c-1.7-3.2-3.4-6.4-5.3-9.5c-0.4-0.7-1.6-1.4-2.4-1.4c-15-0.1-30.1-0.1-45.1,0
		c-0.8,0-1.9,0.7-2.4,1.4c-2.1,3.2-3.9,6.6-6,9.8c-0.4,0.6-1.2,1.2-1.9,1.2c-9.5,0.1-19.1,0-28.6,0
		C426.4,209.6,426.3,209.5,425.8,209.3z M473,182.1c10.4,0,20.5,0,30.9,0c-5-8.6-9.9-16.8-15-25.4
		C483.5,165.4,478.3,173.6,473,182.1z"/>
	<path class="st0" d="M293.2,209.5c-28,0-55.8,0-83.8,0c0-22.9,0-45.8,0-68.9c27.3,0,54.6,0,82.2,0c0,4.5,0,8.9,0,13.3
		c0,0.4-0.6,0.9-1,1c-0.6,0.2-1.2,0.1-1.9,0.1c-15.4,0-30.9,0.1-46.3,0.1c-2,0-2.7,0.5-2.6,2.5c0.2,2.2,0.1,4.5,0,6.7
		c-0.1,1.6,0.4,2.2,2.1,2.1c6-0.1,12,0,17.9,0c8.4,0,16.8,0.1,25.2,0c2.1,0,2.6,0.7,2.6,2.6c-0.1,3.2-0.1,6.4,0,9.6
		c0.1,1.7-0.6,2.3-2.3,2.2c-14.2-0.1-28.4,0-42.6,0c-3,0-3,0-3,2.9c0,2.9,0.1,5.8,0,8.8c-0.1,1.8,0.5,2.2,2.2,2.2
		c16.1-0.1,32.3,0,48.4,0c0.8,0,1.7,0,2.7,0C293.2,199.7,293.2,204.5,293.2,209.5z"/>
</g>
</svg>
